<svg xmlns="http://www.w3.org/2000/svg" viewBox="0 0 442.53 86.26"><defs><style>.cls-1{font-size:76.57px;font-family:Roboto-Bold, Roboto;font-weight:700;}.cls-2,.cls-7{fill:none;}.cls-2,.cls-3{stroke:#2e6eb7;}.cls-2,.cls-3,.cls-7{stroke-miterlimit:10;}.cls-2{stroke-width:6px;}.cls-3{fill:#306eb6;stroke-width:3px;}.cls-4{fill:#726f70;}.cls-5{fill:#7398bf;}.cls-6{fill:#c75d61;}.cls-7{stroke:#c75d61;stroke-width:0.25px;}</style></defs><g id="Layer_2" data-name="Layer 2"><g id="Layer_1-2" data-name="Layer 1"><text class="cls-1" transform="translate(7.93 65.51)"><tspan xml:space="preserve">P  omoterDB</tspan></text><polyline class="cls-2" points="80.19 32.97 65.75 32.97 65.75 67.22"/><polygon class="cls-3" points="80.43 26.94 80.51 38.76 93.77 32.8 80.43 26.94"/><rect class="cls-4" x="21.81" y="67.54" width="0.49" height="11" transform="translate(-0.19 0.06) rotate(-0.15)"/><rect class="cls-4" x="19.81" y="67.54" width="0.49" height="11" transform="translate(-0.19 0.05) rotate(-0.15)"/><rect class="cls-4" x="17.81" y="67.73" width="0.49" height="10.5" transform="translate(-0.19 0.05) rotate(-0.15)"/><rect class="cls-4" x="15.81" y="68.5" width="0.49" height="9.05" transform="translate(-0.19 0.04) rotate(-0.15)"/><rect class="cls-4" x="13.8" y="69.71" width="0.49" height="6.81" transform="translate(-0.19 0.04) rotate(-0.15)"/><rect class="cls-4" x="11.8" y="71.19" width="0.49" height="3.79" transform="translate(-0.19 0.03) rotate(-0.15)"/><rect class="cls-4" x="7.8" y="70.37" width="0.49" height="5.47" transform="translate(-0.19 0.02) rotate(-0.15)"/><rect class="cls-4" x="5.8" y="68.97" width="0.49" height="8.36" transform="translate(-0.19 0.02) rotate(-0.15)"/><rect class="cls-4" x="3.79" y="67.94" width="0.49" height="10.51" transform="translate(-0.19 0.01) rotate(-0.15)"/><rect class="cls-4" x="1.79" y="67.66" width="0.49" height="11" transform="translate(-0.19 0.01) rotate(-0.15)"/><rect class="cls-4" x="0.01" y="67.66" width="0.49" height="11" transform="translate(-0.19 0) rotate(-0.15)"/><rect class="cls-4" x="23.82" y="67.53" width="0.49" height="11" transform="translate(-0.19 0.06) rotate(-0.15)"/><rect class="cls-4" x="25.82" y="67.71" width="0.49" height="10.5" transform="translate(-0.19 0.07) rotate(-0.15)"/><rect class="cls-4" x="27.82" y="68.47" width="0.49" height="9.05" transform="translate(-0.19 0.07) rotate(-0.15)"/><rect class="cls-4" x="29.82" y="69.67" width="0.49" height="6.81" transform="translate(-0.19 0.08) rotate(-0.15)"/><rect class="cls-4" x="31.72" y="71.04" width="0.49" height="3.98" transform="translate(-0.19 0.08) rotate(-0.15)"/><rect class="cls-4" x="35.91" y="70.3" width="0.49" height="5.47" transform="translate(-0.19 0.09) rotate(-0.15)"/><rect class="cls-4" x="37.91" y="68.89" width="0.49" height="8.36" transform="translate(-0.19 0.1) rotate(-0.15)"/><rect class="cls-4" x="39.92" y="67.84" width="0.49" height="10.51" transform="translate(-0.19 0.1) rotate(-0.15)"/><rect class="cls-4" x="41.92" y="67.55" width="0.49" height="11" transform="translate(-0.19 0.11) rotate(-0.15)"/><path class="cls-5" d="M43.53,66.55h-.25a10.77,10.77,0,0,0-3.43.65A14.17,14.17,0,0,0,33,72.71a11.76,11.76,0,0,1-4.28,3.73A14.57,14.57,0,0,1,23.17,78c-.38,0-.77.05-1.15.05a13.49,13.49,0,0,1-9.6-3.74,11.08,11.08,0,0,1-1.29-1.54,14.66,14.66,0,0,0-5.73-5,10.9,10.9,0,0,0-4.15-1.07H.58c-.16,0-.35,0-.57,0V68H1a1.07,1.07,0,0,1,.18,0,8.79,8.79,0,0,1,3.43.9,13.1,13.1,0,0,1,5.12,4.53,13.24,13.24,0,0,0,1.46,1.73,14.36,14.36,0,0,0,4.89,3.14A16.6,16.6,0,0,0,22,79.41c.43,0,.86,0,1.29,0a16.28,16.28,0,0,0,6.26-1.76,13.27,13.27,0,0,0,4.83-4.21,12.6,12.6,0,0,1,6.06-4.91,8.66,8.66,0,0,1,2.84-.56h.11l.77.07c0-.22,0-.45,0-.68v-.73Z"/><path class="cls-4" d="M43.31,79a9.8,9.8,0,0,1-3.21-.6,13.61,13.61,0,0,1-6.62-5.26,13.16,13.16,0,0,0-7.27-5.09,14.55,14.55,0,0,0-4.15-.57h0a14.62,14.62,0,0,0-4.15.59,13.19,13.19,0,0,0-7.24,5.12C7.23,78.16,3,79,1.32,79.11c-.43,0-.68,0-.69,0l0-.41a5.37,5.37,0,0,0,.6,0c1.59-.12,5.65-.91,8.94-5.69a13.56,13.56,0,0,1,7.54-5.31A14.38,14.38,0,0,1,22,67.09a14.41,14.41,0,0,1,4.3.59A13.54,13.54,0,0,1,33.9,73,13.13,13.13,0,0,0,40.29,78a8.91,8.91,0,0,0,3.19.57l0,.41Z"/><path class="cls-6" d="M44.11,78.6l0-.44-.71,0h-.11a8.69,8.69,0,0,1-2.81-.53,12.63,12.63,0,0,1-6.11-4.9,14.19,14.19,0,0,0-7.87-5.48,16.29,16.29,0,0,0-4.24-.62H21.8a16.57,16.57,0,0,0-4.24.64,14.19,14.19,0,0,0-7.84,5.53c-3.16,4.59-7,5.34-8.5,5.45a3.36,3.36,0,0,1-.4,0H.71l-.57,0c0,.45,0,.91,0,1.37l.44,0H.83l.54,0c1.75-.13,6.22-1,9.76-6.14a12.56,12.56,0,0,1,6.94-4.9A14.11,14.11,0,0,1,21.83,68h.43a13.8,13.8,0,0,1,3.76.55,12.58,12.58,0,0,1,7,4.87,14.23,14.23,0,0,0,6.89,5.47,10.55,10.55,0,0,0,3.44.63h.24l.57,0C44.12,79.17,44.12,78.89,44.11,78.6Z"/><path class="cls-7" d="M44.11,78.6l0-.44-.71,0h-.11a8.69,8.69,0,0,1-2.81-.53,12.63,12.63,0,0,1-6.11-4.9,14.19,14.19,0,0,0-7.87-5.48,16.29,16.29,0,0,0-4.24-.62H21.8a16.57,16.57,0,0,0-4.24.64,14.19,14.19,0,0,0-7.84,5.53c-3.16,4.59-7,5.34-8.5,5.45a3.36,3.36,0,0,1-.4,0H.71l-.57,0c0,.45,0,.91,0,1.37l.44,0H.83l.54,0c1.75-.13,6.22-1,9.76-6.14a12.56,12.56,0,0,1,6.94-4.9A14.11,14.11,0,0,1,21.83,68h.43a13.8,13.8,0,0,1,3.76.55,12.58,12.58,0,0,1,7,4.87,14.23,14.23,0,0,0,6.89,5.47,10.55,10.55,0,0,0,3.44.63h.24l.57,0C44.12,79.17,44.12,78.89,44.11,78.6Z"/><path class="cls-4" d="M43.37,67a10,10,0,0,0-3.21.62,13.55,13.55,0,0,0-6.59,5.3A13.14,13.14,0,0,1,26.32,78a14.44,14.44,0,0,1-4.15.6h-.1c0,.14,0,.28,0,.41h.08a14.43,14.43,0,0,0,4.3-.61A13.63,13.63,0,0,0,34,73.13,13.14,13.14,0,0,1,40.35,68a8.53,8.53,0,0,1,3.18-.58l0-.42Z"/><path class="cls-5" d="M21.7,78.88c0-.12,0-.24,0-.35v-.48h.87a14,14,0,0,0,3.7-.56,12.39,12.39,0,0,0,6.83-4.85,13.89,13.89,0,0,1,6.76-5.43,10.42,10.42,0,0,1,3.37-.65h.24l.56,0-.12,1.35-.55,0h-.11a9,9,0,0,0-2.77.54,12.45,12.45,0,0,0-6,4.87,13.93,13.93,0,0,1-7.72,5.45,15.62,15.62,0,0,1-4.17.64H21.7Z"/><rect class="cls-4" x="66.06" y="67.42" width="0.49" height="11" transform="translate(-0.19 0.17) rotate(-0.15)"/><rect class="cls-4" x="64.06" y="67.43" width="0.49" height="11" transform="translate(-0.19 0.16) rotate(-0.15)"/><rect class="cls-4" x="62.06" y="67.61" width="0.49" height="10.5" transform="translate(-0.19 0.16) rotate(-0.15)"/><rect class="cls-4" x="60.06" y="68.39" width="0.49" height="9.05" transform="translate(-0.19 0.15) rotate(-0.15)"/><rect class="cls-4" x="58.05" y="69.59" width="0.49" height="6.81" transform="translate(-0.19 0.15) rotate(-0.15)"/><rect class="cls-4" x="56.05" y="71.08" width="0.49" height="3.79" transform="translate(-0.19 0.14) rotate(-0.15)"/><rect class="cls-4" x="52.05" y="70.26" width="0.49" height="5.47" transform="translate(-0.19 0.14) rotate(-0.15)"/><rect class="cls-4" x="50.05" y="68.86" width="0.49" height="8.36" transform="translate(-0.19 0.13) rotate(-0.15)"/><rect class="cls-4" x="48.04" y="67.82" width="0.49" height="10.51" transform="translate(-0.19 0.13) rotate(-0.15)"/><rect class="cls-4" x="46.04" y="67.54" width="0.49" height="11" transform="translate(-0.19 0.12) rotate(-0.15)"/><rect class="cls-4" x="44.26" y="67.55" width="0.49" height="11" transform="translate(-0.19 0.11) rotate(-0.15)"/><rect class="cls-4" x="68.07" y="67.42" width="0.49" height="11" transform="translate(-0.19 0.17) rotate(-0.15)"/><rect class="cls-4" x="70.07" y="67.59" width="0.49" height="10.5" transform="translate(-0.19 0.18) rotate(-0.15)"/><rect class="cls-4" x="72.07" y="68.36" width="0.49" height="9.05" transform="translate(-0.19 0.19) rotate(-0.15)"/><rect class="cls-4" x="74.07" y="69.55" width="0.49" height="6.81" transform="translate(-0.19 0.19) rotate(-0.15)"/><rect class="cls-4" x="75.97" y="70.93" width="0.49" height="3.98" transform="translate(-0.19 0.2) rotate(-0.15)"/><rect class="cls-4" x="80.16" y="70.19" width="0.49" height="5.47" transform="translate(-0.19 0.21) rotate(-0.15)"/><rect class="cls-4" x="82.16" y="68.78" width="0.49" height="8.36" transform="translate(-0.19 0.21) rotate(-0.15)"/><rect class="cls-4" x="84.17" y="67.73" width="0.49" height="10.51" transform="translate(-0.19 0.22) rotate(-0.15)"/><rect class="cls-4" x="86.17" y="67.44" width="0.49" height="11" transform="translate(-0.19 0.22) rotate(-0.15)"/><path class="cls-5" d="M87.78,66.44h-.25a10.48,10.48,0,0,0-3.43.65,14.19,14.19,0,0,0-6.86,5.5A11.67,11.67,0,0,1,73,76.32a14.4,14.4,0,0,1-5.54,1.56c-.38,0-.77.05-1.15.05a13.45,13.45,0,0,1-9.6-3.75,11,11,0,0,1-1.29-1.53,14.66,14.66,0,0,0-5.73-5,11.16,11.16,0,0,0-4.15-1.08h-.67c-.16,0-.35,0-.57,0v1.32h1.15a8.79,8.79,0,0,1,3.43.9A13.15,13.15,0,0,1,54,73.34a12,12,0,0,0,1.46,1.73,14.22,14.22,0,0,0,4.89,3.14,16.39,16.39,0,0,0,5.95,1.09c.43,0,.86,0,1.29,0a16.28,16.28,0,0,0,6.26-1.76,13.27,13.27,0,0,0,4.83-4.21,12.7,12.7,0,0,1,6.06-4.92,8.83,8.83,0,0,1,2.84-.55h.11l.77.07c0-.23,0-.46,0-.69v-.72Z"/><path class="cls-4" d="M87.56,78.91a10.09,10.09,0,0,1-3.21-.6A13.64,13.64,0,0,1,77.73,73,13.13,13.13,0,0,0,70.46,68a13.74,13.74,0,0,0-4.15-.57h0a14.2,14.2,0,0,0-4.15.59,13.14,13.14,0,0,0-7.24,5.12c-3.41,5-7.66,5.77-9.32,5.9a3.71,3.71,0,0,1-.69,0l0-.41a3.93,3.93,0,0,0,.6,0c1.59-.12,5.65-.91,8.94-5.7A13.59,13.59,0,0,1,62,67.59,15,15,0,0,1,66.29,67a15.21,15.21,0,0,1,4.3.59,13.64,13.64,0,0,1,7.56,5.27,13.16,13.16,0,0,0,6.39,5.1,8.49,8.49,0,0,0,3.19.56l0,.41Z"/><path class="cls-6" d="M88.36,78.49l0-.44-.71,0h-.11a9,9,0,0,1-2.81-.53,12.63,12.63,0,0,1-6.11-4.9,14.19,14.19,0,0,0-7.87-5.48,15.85,15.85,0,0,0-4.24-.62h-.49a16.11,16.11,0,0,0-4.24.64A14.17,14.17,0,0,0,54,72.65c-3.16,4.59-7,5.35-8.5,5.46l-.4,0H45l-.57,0c0,.46,0,.92,0,1.38l.44,0h.24l.54,0c1.75-.13,6.22-1,9.76-6.14a12.59,12.59,0,0,1,6.94-4.91,14.11,14.11,0,0,1,3.76-.57h.43a14.23,14.23,0,0,1,3.76.55,12.63,12.63,0,0,1,7,4.87,14.11,14.11,0,0,0,6.89,5.47,10.66,10.66,0,0,0,3.44.64h.24l.57,0C88.37,79.06,88.37,78.78,88.36,78.49Z"/><path class="cls-7" d="M88.36,78.49l0-.44-.71,0h-.11a9,9,0,0,1-2.81-.53,12.63,12.63,0,0,1-6.11-4.9,14.19,14.19,0,0,0-7.87-5.48,15.85,15.85,0,0,0-4.24-.62h-.49a16.11,16.11,0,0,0-4.24.64A14.17,14.17,0,0,0,54,72.65c-3.16,4.59-7,5.35-8.5,5.46l-.4,0H45l-.57,0c0,.46,0,.92,0,1.38l.44,0h.24l.54,0c1.75-.13,6.22-1,9.76-6.14a12.59,12.59,0,0,1,6.94-4.91,14.11,14.11,0,0,1,3.76-.57h.43a14.23,14.23,0,0,1,3.76.55,12.63,12.63,0,0,1,7,4.87,14.11,14.11,0,0,0,6.89,5.47,10.66,10.66,0,0,0,3.44.64h.24l.57,0C88.37,79.06,88.37,78.78,88.36,78.49Z"/><path class="cls-4" d="M87.62,66.9a9.87,9.87,0,0,0-3.21.61,13.67,13.67,0,0,0-6.59,5.3,13.11,13.11,0,0,1-7.25,5.12,14.44,14.44,0,0,1-4.15.6h-.1c0,.14,0,.27,0,.41h.08a14.82,14.82,0,0,0,4.3-.61A13.68,13.68,0,0,0,78.24,73a13.17,13.17,0,0,1,6.36-5.13,9.07,9.07,0,0,1,3.18-.58l0-.41Z"/><path class="cls-5" d="M66,78.77c0-.12,0-.24,0-.36v-.47h.87a13.72,13.72,0,0,0,3.7-.57,12.37,12.37,0,0,0,6.83-4.84,14,14,0,0,1,6.76-5.44,10.31,10.31,0,0,1,3.37-.64h.24l.56,0-.12,1.36-.55,0h-.11a8.64,8.64,0,0,0-2.77.54,12.45,12.45,0,0,0-6,4.87A13.93,13.93,0,0,1,71,78.65a15.46,15.46,0,0,1-4.17.63h-.31l-.57,0Z"/><rect class="cls-4" x="110.31" y="67.31" width="0.49" height="11" transform="translate(-0.19 0.28) rotate(-0.15)"/><rect class="cls-4" x="108.31" y="67.32" width="0.49" height="11" transform="translate(-0.19 0.28) rotate(-0.15)"/><rect class="cls-4" x="106.31" y="67.5" width="0.49" height="10.5" transform="translate(-0.19 0.27) rotate(-0.15)"/><rect class="cls-4" x="104.31" y="68.28" width="0.49" height="9.05" transform="translate(-0.19 0.27) rotate(-0.15)"/><rect class="cls-4" x="102.3" y="69.48" width="0.49" height="6.81" transform="translate(-0.19 0.26) rotate(-0.15)"/><rect class="cls-4" x="100.3" y="70.96" width="0.49" height="3.79" transform="translate(-0.19 0.26) rotate(-0.15)"/><rect class="cls-4" x="96.3" y="70.15" width="0.49" height="5.47" transform="translate(-0.19 0.25) rotate(-0.15)"/><rect class="cls-4" x="94.3" y="68.74" width="0.49" height="8.36" transform="translate(-0.19 0.24) rotate(-0.15)"/><rect class="cls-4" x="92.29" y="67.71" width="0.49" height="10.51" transform="translate(-0.19 0.24) rotate(-0.15)"/><rect class="cls-4" x="90.29" y="67.43" width="0.49" height="11" transform="translate(-0.19 0.23) rotate(-0.15)"/><rect class="cls-4" x="88.51" y="67.43" width="0.49" height="11" transform="translate(-0.19 0.23) rotate(-0.15)"/><rect class="cls-4" x="112.32" y="67.3" width="0.49" height="11" transform="translate(-0.19 0.29) rotate(-0.15)"/><rect class="cls-4" x="114.32" y="67.48" width="0.49" height="10.5" transform="translate(-0.19 0.29) rotate(-0.15)"/><rect class="cls-4" x="116.32" y="68.25" width="0.49" height="9.05" transform="translate(-0.19 0.3) rotate(-0.15)"/><rect class="cls-4" x="118.32" y="69.44" width="0.49" height="6.81" transform="translate(-0.19 0.3) rotate(-0.15)"/><rect class="cls-4" x="120.22" y="70.81" width="0.49" height="3.98" transform="translate(-0.19 0.31) rotate(-0.15)"/><rect class="cls-4" x="124.41" y="70.07" width="0.49" height="5.47" transform="translate(-0.19 0.32) rotate(-0.15)"/><rect class="cls-4" x="126.41" y="68.66" width="0.49" height="8.36" transform="translate(-0.19 0.32) rotate(-0.15)"/><rect class="cls-4" x="128.42" y="67.62" width="0.49" height="10.51" transform="translate(-0.19 0.33) rotate(-0.15)"/><rect class="cls-4" x="130.42" y="67.33" width="0.49" height="11" transform="translate(-0.19 0.33) rotate(-0.15)"/><path class="cls-5" d="M132,66.33h-.25a10.6,10.6,0,0,0-3.43.66,14.13,14.13,0,0,0-6.86,5.5,11.76,11.76,0,0,1-4.28,3.73,14.4,14.4,0,0,1-5.54,1.56c-.38,0-.77,0-1.15,0a13.49,13.49,0,0,1-9.6-3.74,11,11,0,0,1-1.29-1.53,14.66,14.66,0,0,0-5.73-5,10.77,10.77,0,0,0-4.15-1.08h-.67c-.16,0-.35,0-.57,0V67.8h1.15a9.17,9.17,0,0,1,3.43.9,13.18,13.18,0,0,1,5.12,4.53A13.24,13.24,0,0,0,99.68,75a14.22,14.22,0,0,0,4.89,3.14,16.38,16.38,0,0,0,6,1.08c.43,0,.86,0,1.29-.05a16.11,16.11,0,0,0,6.26-1.76,13.24,13.24,0,0,0,4.83-4.2A12.64,12.64,0,0,1,129,68.25a8.83,8.83,0,0,1,2.84-.55h.11l.77.07c0-.23,0-.46,0-.69v-.72Z"/><path class="cls-4" d="M131.81,78.8a10.09,10.09,0,0,1-3.21-.6A13.64,13.64,0,0,1,122,72.93a13.08,13.08,0,0,0-7.27-5.08,14.37,14.37,0,0,0-4.15-.58h0a14.44,14.44,0,0,0-4.15.6A13.09,13.09,0,0,0,99.14,73c-3.41,5-7.66,5.77-9.32,5.9a5.26,5.26,0,0,1-.69,0l0-.41s.22,0,.6,0c1.59-.12,5.65-.92,8.94-5.7a13.66,13.66,0,0,1,7.54-5.31,15.67,15.67,0,0,1,8.59,0,13.64,13.64,0,0,1,7.56,5.27,13.22,13.22,0,0,0,6.39,5.1,9,9,0,0,0,3.19.56l0,.41Z"/><path class="cls-6" d="M132.61,78.38l0-.45-.71,0h-.11a8.4,8.4,0,0,1-2.81-.53,12.59,12.59,0,0,1-6.11-4.89A14.19,14.19,0,0,0,115,67a15.43,15.43,0,0,0-4.24-.62h-.49a15.68,15.68,0,0,0-4.24.64,14.17,14.17,0,0,0-7.84,5.52c-3.16,4.59-7,5.34-8.5,5.46h-.51l-.57,0c0,.46,0,.92,0,1.37l.44,0h.24l.54,0c1.75-.13,6.22-1,9.76-6.13a12.59,12.59,0,0,1,6.94-4.91,14.11,14.11,0,0,1,3.76-.57h.43a14.23,14.23,0,0,1,3.76.55,12.58,12.58,0,0,1,7,4.87,14.23,14.23,0,0,0,6.89,5.47,10.66,10.66,0,0,0,3.44.64h.24l.57,0C132.62,79,132.62,78.66,132.61,78.38Z"/><path class="cls-7" d="M132.61,78.38l0-.45-.71,0h-.11a8.4,8.4,0,0,1-2.81-.53,12.59,12.59,0,0,1-6.11-4.89A14.19,14.19,0,0,0,115,67a15.43,15.43,0,0,0-4.24-.62h-.49a15.68,15.68,0,0,0-4.24.64,14.17,14.17,0,0,0-7.84,5.52c-3.16,4.59-7,5.34-8.5,5.46h-.51l-.57,0c0,.46,0,.92,0,1.37l.44,0h.24l.54,0c1.75-.13,6.22-1,9.76-6.13a12.59,12.59,0,0,1,6.94-4.91,14.11,14.11,0,0,1,3.76-.57h.43a14.23,14.23,0,0,1,3.76.55,12.58,12.58,0,0,1,7,4.87,14.23,14.23,0,0,0,6.89,5.47,10.66,10.66,0,0,0,3.44.64h.24l.57,0C132.62,79,132.62,78.66,132.61,78.38Z"/><path class="cls-4" d="M131.87,66.78a10.29,10.29,0,0,0-3.21.62,13.61,13.61,0,0,0-6.59,5.3,13.16,13.16,0,0,1-7.25,5.12,14.2,14.2,0,0,1-4.15.59h-.1c0,.13,0,.27,0,.41h.08a14.43,14.43,0,0,0,4.3-.61,13.6,13.6,0,0,0,7.53-5.3,13.17,13.17,0,0,1,6.36-5.13A8.79,8.79,0,0,1,132,67.2l0-.41Z"/><path class="cls-5" d="M110.2,78.65c0-.11,0-.23,0-.35v-.47l.56,0h.31a13.57,13.57,0,0,0,3.7-.56,12.34,12.34,0,0,0,6.83-4.85A14,14,0,0,1,128.34,67a10.42,10.42,0,0,1,3.37-.65H132l.56,0-.12,1.35-.55,0h-.11a8.36,8.36,0,0,0-2.77.54,12.41,12.41,0,0,0-6,4.86,14,14,0,0,1-7.72,5.46,15.9,15.9,0,0,1-4.17.63h-.88Z"/><rect class="cls-4" x="154.56" y="67.2" width="0.49" height="11" transform="translate(-0.19 0.4) rotate(-0.15)"/><rect class="cls-4" x="152.56" y="67.2" width="0.49" height="11" transform="translate(-0.19 0.39) rotate(-0.15)"/><rect class="cls-4" x="150.56" y="67.39" width="0.49" height="10.5" transform="translate(-0.19 0.39) rotate(-0.15)"/><rect class="cls-4" x="148.56" y="68.16" width="0.49" height="9.05" transform="translate(-0.19 0.38) rotate(-0.15)"/><rect class="cls-4" x="146.55" y="69.37" width="0.49" height="6.81" transform="translate(-0.19 0.38) rotate(-0.15)"/><rect class="cls-4" x="144.55" y="70.85" width="0.49" height="3.79" transform="translate(-0.19 0.37) rotate(-0.15)"/><rect class="cls-4" x="140.55" y="70.03" width="0.49" height="5.47" transform="translate(-0.19 0.36) rotate(-0.15)"/><rect class="cls-4" x="138.55" y="68.63" width="0.49" height="8.36" transform="translate(-0.19 0.36) rotate(-0.15)"/><rect class="cls-4" x="136.54" y="67.6" width="0.49" height="10.51" transform="translate(-0.19 0.35) rotate(-0.15)"/><rect class="cls-4" x="134.54" y="67.32" width="0.49" height="11" transform="translate(-0.19 0.34) rotate(-0.15)"/><rect class="cls-4" x="132.76" y="67.32" width="0.49" height="11" transform="translate(-0.19 0.34) rotate(-0.15)"/><rect class="cls-4" x="156.57" y="67.19" width="0.49" height="11" transform="translate(-0.19 0.4) rotate(-0.15)"/><rect class="cls-4" x="158.57" y="67.37" width="0.49" height="10.5" transform="translate(-0.19 0.41) rotate(-0.15)"/><rect class="cls-4" x="160.57" y="68.13" width="0.49" height="9.05" transform="translate(-0.19 0.41) rotate(-0.15)"/><rect class="cls-4" x="162.57" y="69.33" width="0.49" height="6.81" transform="translate(-0.19 0.42) rotate(-0.15)"/><rect class="cls-4" x="164.47" y="70.7" width="0.49" height="3.98" transform="translate(-0.19 0.42) rotate(-0.15)"/><rect class="cls-4" x="168.66" y="69.96" width="0.49" height="5.47" transform="translate(-0.19 0.43) rotate(-0.15)"/><rect class="cls-4" x="170.66" y="68.55" width="0.49" height="8.36" transform="translate(-0.19 0.44) rotate(-0.15)"/><rect class="cls-4" x="172.67" y="67.5" width="0.49" height="10.51" transform="translate(-0.19 0.44) rotate(-0.15)"/><rect class="cls-4" x="174.67" y="67.21" width="0.49" height="11" transform="translate(-0.19 0.45) rotate(-0.15)"/><path class="cls-5" d="M176.28,66.21H176a10.6,10.6,0,0,0-3.43.66,14.07,14.07,0,0,0-6.86,5.5,11.76,11.76,0,0,1-4.28,3.73,14.39,14.39,0,0,1-5.54,1.55c-.38,0-.77,0-1.15,0a13.49,13.49,0,0,1-9.6-3.74,11.08,11.08,0,0,1-1.29-1.54,14.66,14.66,0,0,0-5.73-5A10.9,10.9,0,0,0,134,66.32h-.67c-.16,0-.35,0-.57.05v1.32h1.15a9,9,0,0,1,3.43.9,13.1,13.1,0,0,1,5.12,4.53,13.24,13.24,0,0,0,1.46,1.73A14.36,14.36,0,0,0,148.82,78a16.6,16.6,0,0,0,6,1.08c.43,0,.86,0,1.29,0a16.28,16.28,0,0,0,6.26-1.76,13.17,13.17,0,0,0,4.83-4.21,12.6,12.6,0,0,1,6.06-4.91,9,9,0,0,1,2.84-.56h.11l.77.07c0-.22,0-.45,0-.68v-.73Z"/><path class="cls-4" d="M176.06,78.68a9.8,9.8,0,0,1-3.21-.6,13.61,13.61,0,0,1-6.62-5.26A13.16,13.16,0,0,0,159,67.73a14.55,14.55,0,0,0-4.15-.57h0a14.62,14.62,0,0,0-4.15.59,13.19,13.19,0,0,0-7.24,5.12c-3.41,4.95-7.66,5.78-9.32,5.9-.43,0-.68,0-.69,0l0-.41a5.37,5.37,0,0,0,.6,0c1.59-.12,5.65-.91,8.94-5.69a13.61,13.61,0,0,1,7.54-5.31,15.67,15.67,0,0,1,8.59,0,13.54,13.54,0,0,1,7.56,5.27A13.13,13.13,0,0,0,173,77.7a8.91,8.91,0,0,0,3.19.57l0,.41Z"/><path class="cls-6" d="M176.86,78.26l0-.44-.71,0h-.11a8.69,8.69,0,0,1-2.81-.53,12.57,12.57,0,0,1-6.11-4.9,14.19,14.19,0,0,0-7.87-5.48,16.29,16.29,0,0,0-4.24-.62h-.49a16.57,16.57,0,0,0-4.24.64,14.19,14.19,0,0,0-7.84,5.53c-3.16,4.59-7,5.34-8.5,5.45a3.36,3.36,0,0,1-.4,0h-.11l-.57,0c0,.45,0,.91,0,1.37l.44,0h.24l.54,0c1.75-.13,6.22-1,9.76-6.14a12.56,12.56,0,0,1,6.94-4.9,14.11,14.11,0,0,1,3.76-.57H155a13.8,13.8,0,0,1,3.76.55,12.58,12.58,0,0,1,7,4.87,14.23,14.23,0,0,0,6.89,5.47,10.27,10.27,0,0,0,3.44.63h.24l.57,0C176.87,78.83,176.87,78.55,176.86,78.26Z"/><path class="cls-7" d="M176.86,78.26l0-.44-.71,0h-.11a8.69,8.69,0,0,1-2.81-.53,12.57,12.57,0,0,1-6.11-4.9,14.19,14.19,0,0,0-7.87-5.48,16.29,16.29,0,0,0-4.24-.62h-.49a16.57,16.57,0,0,0-4.24.64,14.19,14.19,0,0,0-7.84,5.53c-3.16,4.59-7,5.34-8.5,5.45a3.36,3.36,0,0,1-.4,0h-.11l-.57,0c0,.45,0,.91,0,1.37l.44,0h.24l.54,0c1.75-.13,6.22-1,9.76-6.14a12.56,12.56,0,0,1,6.94-4.9,14.11,14.11,0,0,1,3.76-.57H155a13.8,13.8,0,0,1,3.76.55,12.58,12.58,0,0,1,7,4.87,14.23,14.23,0,0,0,6.89,5.47,10.27,10.27,0,0,0,3.44.63h.24l.57,0C176.87,78.83,176.87,78.55,176.86,78.26Z"/><path class="cls-4" d="M176.12,66.67a10,10,0,0,0-3.21.62,13.55,13.55,0,0,0-6.59,5.3,13.21,13.21,0,0,1-7.25,5.12,14.62,14.62,0,0,1-4.15.59h-.1c0,.14,0,.28,0,.41h.08a14.43,14.43,0,0,0,4.3-.61,13.63,13.63,0,0,0,7.53-5.31,13.14,13.14,0,0,1,6.36-5.12,8.53,8.53,0,0,1,3.18-.58l0-.41Z"/><path class="cls-5" d="M154.45,78.54c0-.12,0-.24,0-.35v-.48h.87a14,14,0,0,0,3.7-.56,12.39,12.39,0,0,0,6.83-4.85,13.89,13.89,0,0,1,6.76-5.43,10.42,10.42,0,0,1,3.37-.65h.24l.56,0-.12,1.35-.55,0H176a8.53,8.53,0,0,0-2.77.53,12.45,12.45,0,0,0-6,4.87,13.93,13.93,0,0,1-7.72,5.45,15.62,15.62,0,0,1-4.17.64h-.88Z"/><rect class="cls-4" x="198.81" y="67.08" width="0.49" height="11" transform="translate(-0.19 0.51) rotate(-0.15)"/><rect class="cls-4" x="196.81" y="67.09" width="0.49" height="11" transform="translate(-0.18 0.5) rotate(-0.15)"/><rect class="cls-4" x="194.81" y="67.27" width="0.49" height="10.5" transform="translate(-0.18 0.5) rotate(-0.15)"/><rect class="cls-4" x="192.81" y="68.05" width="0.49" height="9.05" transform="translate(-0.18 0.49) rotate(-0.15)"/><rect class="cls-4" x="190.8" y="69.26" width="0.49" height="6.81" transform="translate(-0.19 0.49) rotate(-0.15)"/><rect class="cls-4" x="188.8" y="70.74" width="0.49" height="3.79" transform="translate(-0.19 0.48) rotate(-0.15)"/><rect class="cls-4" x="184.8" y="69.92" width="0.49" height="5.47" transform="translate(-0.19 0.47) rotate(-0.15)"/><rect class="cls-4" x="182.8" y="68.52" width="0.49" height="8.36" transform="translate(-0.19 0.47) rotate(-0.15)"/><rect class="cls-4" x="180.79" y="67.48" width="0.49" height="10.51" transform="translate(-0.19 0.46) rotate(-0.15)"/><rect class="cls-4" x="178.79" y="67.2" width="0.49" height="11" transform="translate(-0.19 0.46) rotate(-0.15)"/><rect class="cls-4" x="177.01" y="67.21" width="0.49" height="11" transform="translate(-0.19 0.45) rotate(-0.15)"/><rect class="cls-4" x="200.82" y="67.08" width="0.49" height="11" transform="translate(-0.18 0.51) rotate(-0.15)"/><rect class="cls-4" x="202.82" y="67.25" width="0.49" height="10.5" transform="translate(-0.18 0.52) rotate(-0.15)"/><rect class="cls-4" x="204.82" y="68.02" width="0.49" height="9.05" transform="translate(-0.18 0.52) rotate(-0.15)"/><rect class="cls-4" x="206.82" y="69.21" width="0.49" height="6.81" transform="translate(-0.18 0.53) rotate(-0.15)"/><rect class="cls-4" x="208.72" y="70.59" width="0.49" height="3.98" transform="translate(-0.18 0.53) rotate(-0.15)"/><rect class="cls-4" x="212.91" y="69.85" width="0.49" height="5.47" transform="translate(-0.18 0.55) rotate(-0.15)"/><rect class="cls-4" x="214.91" y="68.44" width="0.49" height="8.36" transform="translate(-0.18 0.55) rotate(-0.15)"/><rect class="cls-4" x="216.92" y="67.39" width="0.49" height="10.51" transform="translate(-0.19 0.56) rotate(-0.15)"/><rect class="cls-4" x="218.92" y="67.1" width="0.49" height="11" transform="translate(-0.18 0.56) rotate(-0.15)"/><path class="cls-5" d="M220.53,66.1h-.25a10.48,10.48,0,0,0-3.43.65,14.19,14.19,0,0,0-6.86,5.5A11.67,11.67,0,0,1,205.71,76a14.4,14.4,0,0,1-5.54,1.56c-.38,0-.77,0-1.15,0a13.45,13.45,0,0,1-9.6-3.75,11,11,0,0,1-1.29-1.53,14.66,14.66,0,0,0-5.73-5,11.16,11.16,0,0,0-4.15-1.08h-.67c-.16,0-.35,0-.57.05v1.32h1.15a8.79,8.79,0,0,1,3.43.9A13.15,13.15,0,0,1,186.72,73a12,12,0,0,0,1.46,1.73,14.07,14.07,0,0,0,4.89,3.14A16.39,16.39,0,0,0,199,79c.43,0,.86,0,1.29,0a16.28,16.28,0,0,0,6.26-1.76,13.27,13.27,0,0,0,4.83-4.21A12.7,12.7,0,0,1,217.46,68a8.83,8.83,0,0,1,2.84-.55h.11l.77.07c0-.23,0-.46,0-.69v-.72Z"/><path class="cls-4" d="M220.31,78.57a10.09,10.09,0,0,1-3.21-.6,13.64,13.64,0,0,1-6.62-5.27,13.13,13.13,0,0,0-7.27-5.08,14.13,14.13,0,0,0-4.15-.57h0a14.2,14.2,0,0,0-4.15.59,13.14,13.14,0,0,0-7.24,5.12c-3.41,4.95-7.66,5.77-9.32,5.9a3.71,3.71,0,0,1-.69,0l0-.41a3.93,3.93,0,0,0,.6,0c1.59-.12,5.65-.91,8.94-5.7a13.59,13.59,0,0,1,7.54-5.3,15,15,0,0,1,4.29-.62,15.21,15.21,0,0,1,4.3.59,13.64,13.64,0,0,1,7.56,5.27,13.16,13.16,0,0,0,6.39,5.1,8.49,8.49,0,0,0,3.19.56l0,.42Z"/><path class="cls-6" d="M221.11,78.15l0-.44-.71,0h-.11a9,9,0,0,1-2.81-.53,12.63,12.63,0,0,1-6.11-4.9,14.19,14.19,0,0,0-7.87-5.48,16.29,16.29,0,0,0-4.24-.62h-.49a16.11,16.11,0,0,0-4.24.64,14.17,14.17,0,0,0-7.84,5.52c-3.16,4.59-7,5.35-8.5,5.46l-.4,0h-.11l-.57,0c0,.46,0,.92,0,1.38l.44,0h.24l.54,0c1.75-.13,6.22-1,9.76-6.14a12.51,12.51,0,0,1,6.94-4.9,14.27,14.27,0,0,1,3.76-.58h.43a14.23,14.23,0,0,1,3.76.55A12.6,12.6,0,0,1,210,73a14.13,14.13,0,0,0,6.89,5.46,10.66,10.66,0,0,0,3.44.64h.24l.57,0C221.12,78.72,221.12,78.44,221.11,78.15Z"/><path class="cls-7" d="M221.11,78.15l0-.44-.71,0h-.11a9,9,0,0,1-2.81-.53,12.63,12.63,0,0,1-6.11-4.9,14.19,14.19,0,0,0-7.87-5.48,16.29,16.29,0,0,0-4.24-.62h-.49a16.11,16.11,0,0,0-4.24.64,14.17,14.17,0,0,0-7.84,5.52c-3.16,4.59-7,5.35-8.5,5.46l-.4,0h-.11l-.57,0c0,.46,0,.92,0,1.38l.44,0h.24l.54,0c1.75-.13,6.22-1,9.76-6.14a12.51,12.51,0,0,1,6.94-4.9,14.27,14.27,0,0,1,3.76-.58h.43a14.23,14.23,0,0,1,3.76.55A12.6,12.6,0,0,1,210,73a14.13,14.13,0,0,0,6.89,5.46,10.66,10.66,0,0,0,3.44.64h.24l.57,0C221.12,78.72,221.12,78.44,221.11,78.15Z"/><path class="cls-4" d="M220.37,66.56a9.7,9.7,0,0,0-3.21.62,13.58,13.58,0,0,0-6.59,5.29,13.11,13.11,0,0,1-7.25,5.12,14.44,14.44,0,0,1-4.15.6h-.1c0,.14,0,.27,0,.41h.08a14.82,14.82,0,0,0,4.3-.61A13.68,13.68,0,0,0,211,72.68a13.23,13.23,0,0,1,6.36-5.13,9.07,9.07,0,0,1,3.18-.58l0-.41Z"/><path class="cls-5" d="M198.7,78.43c0-.12,0-.24,0-.36V77.6h.87a13.72,13.72,0,0,0,3.7-.57,12.37,12.37,0,0,0,6.83-4.84,14,14,0,0,1,6.76-5.44,10.31,10.31,0,0,1,3.37-.64h.24l.56,0-.12,1.36-.55,0h-.11a8.64,8.64,0,0,0-2.77.54,12.45,12.45,0,0,0-6,4.87,13.93,13.93,0,0,1-7.72,5.45,15.46,15.46,0,0,1-4.17.63h-.31l-.57,0Z"/><rect class="cls-4" x="243.06" y="66.97" width="0.49" height="11" transform="translate(-0.18 0.62) rotate(-0.15)"/><rect class="cls-4" x="241.06" y="66.98" width="0.49" height="11" transform="translate(-0.18 0.62) rotate(-0.15)"/><rect class="cls-4" x="239.06" y="67.16" width="0.49" height="10.5" transform="translate(-0.18 0.61) rotate(-0.15)"/><rect class="cls-4" x="237.06" y="67.94" width="0.49" height="9.05" transform="translate(-0.18 0.61) rotate(-0.15)"/><rect class="cls-4" x="235.05" y="69.14" width="0.49" height="6.81" transform="translate(-0.18 0.6) rotate(-0.15)"/><rect class="cls-4" x="233.05" y="70.62" width="0.49" height="3.79" transform="translate(-0.18 0.6) rotate(-0.15)"/><rect class="cls-4" x="229.05" y="69.81" width="0.49" height="5.47" transform="translate(-0.18 0.59) rotate(-0.15)"/><rect class="cls-4" x="227.05" y="68.4" width="0.49" height="8.36" transform="translate(-0.18 0.58) rotate(-0.15)"/><rect class="cls-4" x="225.04" y="67.37" width="0.49" height="10.51" transform="translate(-0.18 0.58) rotate(-0.15)"/><rect class="cls-4" x="223.04" y="67.09" width="0.49" height="11" transform="translate(-0.18 0.57) rotate(-0.15)"/><rect class="cls-4" x="221.26" y="67.09" width="0.49" height="11" transform="translate(-0.18 0.57) rotate(-0.15)"/><rect class="cls-4" x="245.07" y="66.97" width="0.49" height="11" transform="translate(-0.18 0.63) rotate(-0.15)"/><rect class="cls-4" x="247.07" y="67.14" width="0.49" height="10.5" transform="translate(-0.18 0.63) rotate(-0.15)"/><rect class="cls-4" x="249.07" y="67.91" width="0.49" height="9.05" transform="translate(-0.18 0.64) rotate(-0.15)"/><rect class="cls-4" x="251.07" y="69.1" width="0.49" height="6.81" transform="translate(-0.18 0.64) rotate(-0.15)"/><rect class="cls-4" x="252.97" y="70.47" width="0.49" height="3.98" transform="translate(-0.18 0.65) rotate(-0.15)"/><rect class="cls-4" x="257.16" y="69.73" width="0.49" height="5.47" transform="translate(-0.18 0.66) rotate(-0.15)"/><rect class="cls-4" x="259.16" y="68.32" width="0.49" height="8.36" transform="translate(-0.18 0.66) rotate(-0.15)"/><rect class="cls-4" x="261.17" y="67.28" width="0.49" height="10.51" transform="translate(-0.18 0.67) rotate(-0.15)"/><rect class="cls-4" x="263.17" y="66.99" width="0.49" height="11" transform="translate(-0.18 0.67) rotate(-0.15)"/><path class="cls-5" d="M264.78,66h-.25a10.6,10.6,0,0,0-3.43.66,14.13,14.13,0,0,0-6.86,5.5A11.76,11.76,0,0,1,250,75.87a14.4,14.4,0,0,1-5.54,1.56c-.38,0-.77,0-1.15,0a13.49,13.49,0,0,1-9.6-3.74,11,11,0,0,1-1.29-1.53,14.66,14.66,0,0,0-5.73-5,10.77,10.77,0,0,0-4.15-1.08h-.67c-.16,0-.35,0-.57,0v1.32h1.15a9.17,9.17,0,0,1,3.43.9A13.18,13.18,0,0,1,231,72.89a12.62,12.62,0,0,0,1.46,1.73,14.22,14.22,0,0,0,4.89,3.14,16.38,16.38,0,0,0,6,1.08c.43,0,.86,0,1.29,0A16.11,16.11,0,0,0,250.82,77a13.24,13.24,0,0,0,4.83-4.2,12.64,12.64,0,0,1,6.06-4.92,8.83,8.83,0,0,1,2.84-.55h.11l.77.07c0-.23,0-.46,0-.69V66Z"/><path class="cls-4" d="M264.56,78.46a10.09,10.09,0,0,1-3.21-.6,13.64,13.64,0,0,1-6.62-5.27,13.08,13.08,0,0,0-7.27-5.08,14.37,14.37,0,0,0-4.15-.58h0a14.44,14.44,0,0,0-4.15.6,13.09,13.09,0,0,0-7.24,5.12c-3.41,4.95-7.66,5.77-9.32,5.9a5.26,5.26,0,0,1-.69,0l0-.41s.22,0,.6,0c1.59-.12,5.65-.92,8.94-5.7A13.66,13.66,0,0,1,239,67.13a15.67,15.67,0,0,1,8.59,0,13.64,13.64,0,0,1,7.56,5.27,13.22,13.22,0,0,0,6.39,5.1,9,9,0,0,0,3.19.56l0,.41Z"/><path class="cls-6" d="M265.36,78l0-.45-.71,0h-.11a8.82,8.82,0,0,1-2.81-.54,12.59,12.59,0,0,1-6.11-4.89,14.19,14.19,0,0,0-7.87-5.48,15.85,15.85,0,0,0-4.24-.62h-.49a15.68,15.68,0,0,0-4.24.64A14.17,14.17,0,0,0,231,72.2c-3.16,4.59-7,5.35-8.5,5.46H222l-.57,0c0,.46,0,.92,0,1.37l.44,0h.24l.54,0c1.75-.13,6.22-1,9.76-6.13A12.59,12.59,0,0,1,239.32,68a14.11,14.11,0,0,1,3.76-.57h.43a14.23,14.23,0,0,1,3.76.55,12.58,12.58,0,0,1,7,4.87,14.23,14.23,0,0,0,6.89,5.47,10.66,10.66,0,0,0,3.44.64h.24l.57,0C265.37,78.61,265.37,78.32,265.36,78Z"/><path class="cls-7" d="M265.36,78l0-.45-.71,0h-.11a8.82,8.82,0,0,1-2.81-.54,12.59,12.59,0,0,1-6.11-4.89,14.19,14.19,0,0,0-7.87-5.48,15.85,15.85,0,0,0-4.24-.62h-.49a15.68,15.68,0,0,0-4.24.64A14.17,14.17,0,0,0,231,72.2c-3.16,4.59-7,5.35-8.5,5.46H222l-.57,0c0,.46,0,.92,0,1.37l.44,0h.24l.54,0c1.75-.13,6.22-1,9.76-6.13A12.59,12.59,0,0,1,239.32,68a14.11,14.11,0,0,1,3.76-.57h.43a14.23,14.23,0,0,1,3.76.55,12.58,12.58,0,0,1,7,4.87,14.23,14.23,0,0,0,6.89,5.47,10.66,10.66,0,0,0,3.44.64h.24l.57,0C265.37,78.61,265.37,78.32,265.36,78Z"/><path class="cls-4" d="M264.62,66.44a10.29,10.29,0,0,0-3.21.62,13.61,13.61,0,0,0-6.59,5.3,13.16,13.16,0,0,1-7.25,5.12,14.2,14.2,0,0,1-4.15.59h-.1c0,.13,0,.27,0,.41h.08a15,15,0,0,0,4.3-.62,13.6,13.6,0,0,0,7.53-5.3,13.17,13.17,0,0,1,6.36-5.13,8.79,8.79,0,0,1,3.18-.58l0-.41Z"/><path class="cls-5" d="M243,78.32c0-.12,0-.24,0-.36v-.47l.56,0h.14a.81.81,0,0,0,.17,0,13.57,13.57,0,0,0,3.7-.56,12.37,12.37,0,0,0,6.83-4.84,13.92,13.92,0,0,1,6.76-5.44,10.42,10.42,0,0,1,3.37-.65h.24l.56,0-.12,1.35-.55,0h-.11a8.36,8.36,0,0,0-2.77.54,12.41,12.41,0,0,0-6,4.86A14,14,0,0,1,248,78.2a15.9,15.9,0,0,1-4.17.63H243Z"/><rect class="cls-4" x="287.31" y="66.86" width="0.49" height="11" transform="translate(-0.18 0.74) rotate(-0.15)"/><rect class="cls-4" x="285.31" y="66.86" width="0.49" height="11" transform="translate(-0.18 0.73) rotate(-0.15)"/><rect class="cls-4" x="283.31" y="67.05" width="0.49" height="10.5" transform="translate(-0.18 0.73) rotate(-0.15)"/><rect class="cls-4" x="281.31" y="67.82" width="0.49" height="9.05" transform="translate(-0.18 0.72) rotate(-0.15)"/><rect class="cls-4" x="279.3" y="69.03" width="0.49" height="6.81" transform="translate(-0.18 0.71) rotate(-0.15)"/><rect class="cls-4" x="277.3" y="70.51" width="0.49" height="3.79" transform="translate(-0.18 0.71) rotate(-0.15)"/><rect class="cls-4" x="273.3" y="69.69" width="0.49" height="5.47" transform="translate(-0.18 0.7) rotate(-0.15)"/><rect class="cls-4" x="271.3" y="68.29" width="0.49" height="8.36" transform="translate(-0.18 0.69) rotate(-0.15)"/><rect class="cls-4" x="269.29" y="67.26" width="0.49" height="10.51" transform="translate(-0.18 0.69) rotate(-0.15)"/><rect class="cls-4" x="267.29" y="66.98" width="0.49" height="11" transform="translate(-0.18 0.68) rotate(-0.15)"/><rect class="cls-4" x="265.51" y="66.98" width="0.49" height="11" transform="translate(-0.18 0.68) rotate(-0.15)"/><rect class="cls-4" x="289.32" y="66.85" width="0.49" height="11" transform="translate(-0.18 0.74) rotate(-0.15)"/><rect class="cls-4" x="291.32" y="67.03" width="0.49" height="10.5" transform="translate(-0.18 0.75) rotate(-0.15)"/><rect class="cls-4" x="293.32" y="67.79" width="0.49" height="9.05" transform="translate(-0.18 0.75) rotate(-0.15)"/><rect class="cls-4" x="295.32" y="68.99" width="0.49" height="6.81" transform="translate(-0.18 0.76) rotate(-0.15)"/><rect class="cls-4" x="297.22" y="70.36" width="0.49" height="3.98" transform="translate(-0.18 0.76) rotate(-0.15)"/><rect class="cls-4" x="301.41" y="69.62" width="0.49" height="5.47" transform="translate(-0.18 0.77) rotate(-0.15)"/><rect class="cls-4" x="303.41" y="68.21" width="0.49" height="8.36" transform="translate(-0.18 0.78) rotate(-0.15)"/><rect class="cls-4" x="305.42" y="67.16" width="0.49" height="10.51" transform="translate(-0.18 0.78) rotate(-0.15)"/><rect class="cls-4" x="307.42" y="66.87" width="0.49" height="11" transform="translate(-0.18 0.79) rotate(-0.15)"/><path class="cls-5" d="M309,65.88h-.25a10.6,10.6,0,0,0-3.43.66,14.07,14.07,0,0,0-6.86,5.5,11.76,11.76,0,0,1-4.28,3.73,14.39,14.39,0,0,1-5.54,1.55c-.38,0-.77,0-1.15,0a13.49,13.49,0,0,1-9.6-3.74,11.08,11.08,0,0,1-1.29-1.54,14.74,14.74,0,0,0-5.73-5A10.9,10.9,0,0,0,266.75,66h-.67l-.57,0v1.32h1.15a9,9,0,0,1,3.43.9,13.1,13.1,0,0,1,5.12,4.53,13.24,13.24,0,0,0,1.46,1.73,14.36,14.36,0,0,0,4.89,3.14,16.6,16.6,0,0,0,5.95,1.08c.43,0,.86,0,1.29,0a16.28,16.28,0,0,0,6.26-1.76,13.24,13.24,0,0,0,4.83-4.2A12.58,12.58,0,0,1,306,67.8a9,9,0,0,1,2.84-.56h.11l.77.08c0-.23,0-.46,0-.69V65.9Z"/><path class="cls-4" d="M308.81,78.34a9.53,9.53,0,0,1-3.21-.6A13.61,13.61,0,0,1,299,72.48a13.16,13.16,0,0,0-7.27-5.09,14.55,14.55,0,0,0-4.15-.57h0a14.62,14.62,0,0,0-4.15.59,13.19,13.19,0,0,0-7.24,5.12c-3.41,5-7.66,5.78-9.32,5.9-.43,0-.68,0-.69,0l0-.41a5.37,5.37,0,0,0,.6,0c1.59-.12,5.65-.91,8.94-5.69A13.61,13.61,0,0,1,283.25,67a15.67,15.67,0,0,1,8.59,0,13.54,13.54,0,0,1,7.56,5.27,13.13,13.13,0,0,0,6.39,5.09,8.91,8.91,0,0,0,3.19.57l0,.41Z"/><path class="cls-6" d="M309.61,77.92l0-.44-.71,0h-.11a8.69,8.69,0,0,1-2.81-.53A12.57,12.57,0,0,1,299.9,72,14.19,14.19,0,0,0,292,66.54a16.29,16.29,0,0,0-4.24-.62h-.49a16.27,16.27,0,0,0-4.24.65,14.12,14.12,0,0,0-7.84,5.52c-3.16,4.59-7,5.34-8.5,5.45a3.36,3.36,0,0,1-.4,0h-.11l-.57,0c0,.46,0,.91,0,1.37l.44,0h.24a5.15,5.15,0,0,0,.54,0c1.75-.13,6.22-1,9.76-6.14a12.62,12.62,0,0,1,6.94-4.9,14.11,14.11,0,0,1,3.76-.57h.43a14.23,14.23,0,0,1,3.76.55,12.58,12.58,0,0,1,7,4.87,14.23,14.23,0,0,0,6.89,5.47,10.27,10.27,0,0,0,3.44.63h.24l.57,0C309.62,78.49,309.62,78.21,309.61,77.92Z"/><path class="cls-7" d="M309.61,77.92l0-.44-.71,0h-.11a8.69,8.69,0,0,1-2.81-.53A12.57,12.57,0,0,1,299.9,72,14.19,14.19,0,0,0,292,66.54a16.29,16.29,0,0,0-4.24-.62h-.49a16.27,16.27,0,0,0-4.24.65,14.12,14.12,0,0,0-7.84,5.52c-3.16,4.59-7,5.34-8.5,5.45a3.36,3.36,0,0,1-.4,0h-.11l-.57,0c0,.46,0,.91,0,1.37l.44,0h.24a5.15,5.15,0,0,0,.54,0c1.75-.13,6.22-1,9.76-6.14a12.62,12.62,0,0,1,6.94-4.9,14.11,14.11,0,0,1,3.76-.57h.43a14.23,14.23,0,0,1,3.76.55,12.58,12.58,0,0,1,7,4.87,14.23,14.23,0,0,0,6.89,5.47,10.27,10.27,0,0,0,3.44.63h.24l.57,0C309.62,78.49,309.62,78.21,309.61,77.92Z"/><path class="cls-4" d="M308.87,66.33a10,10,0,0,0-3.21.62,13.55,13.55,0,0,0-6.59,5.3,13.21,13.21,0,0,1-7.25,5.12,14.62,14.62,0,0,1-4.15.59h-.1c0,.14,0,.28,0,.41h.08a14.43,14.43,0,0,0,4.3-.61,13.63,13.63,0,0,0,7.53-5.31,13.14,13.14,0,0,1,6.36-5.12,8.79,8.79,0,0,1,3.18-.58l0-.41Z"/><path class="cls-5" d="M287.2,78.2c0-.12,0-.24,0-.35v-.48h.87a14,14,0,0,0,3.7-.56A12.39,12.39,0,0,0,298.58,72a13.89,13.89,0,0,1,6.76-5.43,10.42,10.42,0,0,1,3.37-.65H309l.56,0-.12,1.35-.55,0h-.11a8.36,8.36,0,0,0-2.77.54,12.35,12.35,0,0,0-6,4.86,14,14,0,0,1-7.72,5.46,15.9,15.9,0,0,1-4.17.63h-.88Z"/><rect class="cls-4" x="331.56" y="66.74" width="0.49" height="11" transform="translate(-0.18 0.85) rotate(-0.15)"/><rect class="cls-4" x="329.56" y="66.75" width="0.49" height="11" transform="translate(-0.19 0.85) rotate(-0.15)"/><rect class="cls-4" x="327.56" y="66.94" width="0.49" height="10.5" transform="translate(-0.18 0.84) rotate(-0.15)"/><rect class="cls-4" x="325.56" y="67.71" width="0.49" height="9.05" transform="translate(-0.18 0.83) rotate(-0.15)"/><rect class="cls-4" x="323.55" y="68.92" width="0.49" height="6.81" transform="translate(-0.18 0.83) rotate(-0.15)"/><rect class="cls-4" x="321.55" y="70.4" width="0.49" height="3.79" transform="translate(-0.18 0.82) rotate(-0.15)"/><rect class="cls-4" x="317.55" y="69.58" width="0.49" height="5.47" transform="translate(-0.18 0.81) rotate(-0.15)"/><rect class="cls-4" x="315.55" y="68.18" width="0.49" height="8.36" transform="translate(-0.18 0.81) rotate(-0.15)"/><rect class="cls-4" x="313.54" y="67.14" width="0.49" height="10.51" transform="translate(-0.18 0.8) rotate(-0.15)"/><rect class="cls-4" x="311.54" y="66.86" width="0.49" height="11" transform="translate(-0.18 0.8) rotate(-0.15)"/><rect class="cls-4" x="309.76" y="66.87" width="0.49" height="11" transform="translate(-0.18 0.79) rotate(-0.15)"/><rect class="cls-4" x="333.57" y="66.74" width="0.49" height="11" transform="translate(-0.18 0.85) rotate(-0.15)"/><rect class="cls-4" x="335.57" y="66.91" width="0.49" height="10.5" transform="translate(-0.18 0.86) rotate(-0.15)"/><rect class="cls-4" x="337.57" y="67.68" width="0.49" height="9.05" transform="translate(-0.18 0.86) rotate(-0.15)"/><rect class="cls-4" x="339.57" y="68.87" width="0.49" height="6.81" transform="translate(-0.18 0.87) rotate(-0.15)"/><rect class="cls-4" x="341.47" y="70.25" width="0.49" height="3.98" transform="translate(-0.18 0.87) rotate(-0.15)"/><rect class="cls-4" x="345.66" y="69.51" width="0.49" height="5.47" transform="translate(-0.18 0.88) rotate(-0.15)"/><rect class="cls-4" x="347.66" y="68.1" width="0.49" height="8.36" transform="translate(-0.18 0.89) rotate(-0.15)"/><rect class="cls-4" x="349.67" y="67.05" width="0.49" height="10.51" transform="translate(-0.18 0.89) rotate(-0.15)"/><rect class="cls-4" x="351.67" y="66.76" width="0.49" height="11" transform="translate(-0.18 0.9) rotate(-0.15)"/><path class="cls-5" d="M353.28,65.76H353a10.48,10.48,0,0,0-3.43.65,14.17,14.17,0,0,0-6.86,5.51,11.73,11.73,0,0,1-4.28,3.72,14.4,14.4,0,0,1-5.54,1.56c-.38,0-.77,0-1.15,0a13.45,13.45,0,0,1-9.6-3.75A11,11,0,0,1,320.88,72a14.66,14.66,0,0,0-5.73-5A10.9,10.9,0,0,0,311,65.87h-.67c-.16,0-.35,0-.57,0v1.32h1.15a8.79,8.79,0,0,1,3.43.9,13.1,13.1,0,0,1,5.12,4.53,12.53,12.53,0,0,0,1.46,1.72,14.07,14.07,0,0,0,4.89,3.14,16.39,16.39,0,0,0,5.95,1.09c.43,0,.86,0,1.29-.05a16.28,16.28,0,0,0,6.26-1.76,13.27,13.27,0,0,0,4.83-4.21,12.6,12.6,0,0,1,6.06-4.91,8.66,8.66,0,0,1,2.84-.56h.11l.77.07c0-.23,0-.46,0-.69v-.72Z"/><path class="cls-4" d="M353.06,78.23a10.09,10.09,0,0,1-3.21-.6,13.64,13.64,0,0,1-6.62-5.27A13.13,13.13,0,0,0,336,67.28a14.13,14.13,0,0,0-4.15-.57h0a14.2,14.2,0,0,0-4.15.59,13.14,13.14,0,0,0-7.24,5.12c-3.41,5-7.66,5.78-9.32,5.9-.43,0-.68,0-.69,0l0-.42a2.77,2.77,0,0,0,.6,0c1.59-.12,5.65-.91,8.94-5.69a13.56,13.56,0,0,1,7.54-5.31,14.38,14.38,0,0,1,4.29-.61,14.6,14.6,0,0,1,4.3.58,13.64,13.64,0,0,1,7.56,5.27,13.16,13.16,0,0,0,6.39,5.1,8.91,8.91,0,0,0,3.19.57l0,.41Z"/><path class="cls-6" d="M353.86,77.81l0-.44-.71,0h-.11a9,9,0,0,1-2.81-.53,12.63,12.63,0,0,1-6.11-4.9,14.19,14.19,0,0,0-7.87-5.48,16.29,16.29,0,0,0-4.24-.62h-.49a16.11,16.11,0,0,0-4.24.64A14.17,14.17,0,0,0,319.47,72c-3.16,4.59-7,5.35-8.5,5.46l-.4,0h-.11l-.57,0c0,.46,0,.92,0,1.38l.44,0h.24l.54,0c1.75-.13,6.22-1,9.76-6.14a12.51,12.51,0,0,1,6.94-4.9,14.27,14.27,0,0,1,3.76-.58H332a14,14,0,0,1,3.76.56,12.53,12.53,0,0,1,7,4.87,14.13,14.13,0,0,0,6.89,5.46,10.66,10.66,0,0,0,3.44.64h.24l.57,0C353.87,78.38,353.87,78.1,353.86,77.81Z"/><path class="cls-7" d="M353.86,77.81l0-.44-.71,0h-.11a9,9,0,0,1-2.81-.53,12.63,12.63,0,0,1-6.11-4.9,14.19,14.19,0,0,0-7.87-5.48,16.29,16.29,0,0,0-4.24-.62h-.49a16.11,16.11,0,0,0-4.24.64A14.17,14.17,0,0,0,319.47,72c-3.16,4.59-7,5.35-8.5,5.46l-.4,0h-.11l-.57,0c0,.46,0,.92,0,1.38l.44,0h.24l.54,0c1.75-.13,6.22-1,9.76-6.14a12.51,12.51,0,0,1,6.94-4.9,14.27,14.27,0,0,1,3.76-.58H332a14,14,0,0,1,3.76.56,12.53,12.53,0,0,1,7,4.87,14.13,14.13,0,0,0,6.89,5.46,10.66,10.66,0,0,0,3.44.64h.24l.57,0C353.87,78.38,353.87,78.1,353.86,77.81Z"/><path class="cls-4" d="M353.12,66.22a9.7,9.7,0,0,0-3.21.62,13.58,13.58,0,0,0-6.59,5.29,13.11,13.11,0,0,1-7.25,5.12,14.44,14.44,0,0,1-4.15.6h-.1c0,.14,0,.27,0,.41h.08a14.82,14.82,0,0,0,4.3-.61,13.68,13.68,0,0,0,7.53-5.31,13.23,13.23,0,0,1,6.36-5.13,9.07,9.07,0,0,1,3.18-.58l0-.41Z"/><path class="cls-5" d="M331.45,78.09c0-.12,0-.24,0-.36v-.47h.87a13.72,13.72,0,0,0,3.7-.57,12.37,12.37,0,0,0,6.83-4.84,14,14,0,0,1,6.76-5.44,10.31,10.31,0,0,1,3.37-.64h.24l.56,0-.12,1.35-.55,0H353a8.64,8.64,0,0,0-2.77.54,12.45,12.45,0,0,0-6,4.87A13.93,13.93,0,0,1,336.5,78a15.46,15.46,0,0,1-4.17.63,1.85,1.85,0,0,1-.24,0H332l-.57,0Z"/><rect class="cls-4" x="375.81" y="66.63" width="0.49" height="11" transform="translate(-0.18 0.96) rotate(-0.15)"/><rect class="cls-4" x="373.81" y="66.64" width="0.49" height="11" transform="translate(-0.18 0.96) rotate(-0.15)"/><rect class="cls-4" x="371.81" y="66.82" width="0.49" height="10.5" transform="translate(-0.18 0.95) rotate(-0.15)"/><rect class="cls-4" x="369.81" y="67.6" width="0.49" height="9.05" transform="translate(-0.18 0.95) rotate(-0.15)"/><rect class="cls-4" x="367.8" y="68.8" width="0.49" height="6.81" transform="translate(-0.18 0.94) rotate(-0.15)"/><rect class="cls-4" x="365.8" y="70.28" width="0.49" height="3.79" transform="translate(-0.18 0.94) rotate(-0.15)"/><rect class="cls-4" x="361.8" y="69.47" width="0.49" height="5.47" transform="translate(-0.19 0.94) rotate(-0.15)"/><rect class="cls-4" x="359.8" y="68.06" width="0.49" height="8.36" transform="translate(-0.18 0.92) rotate(-0.15)"/><rect class="cls-4" x="357.79" y="67.03" width="0.49" height="10.51" transform="translate(-0.19 0.93) rotate(-0.15)"/><rect class="cls-4" x="355.79" y="66.75" width="0.49" height="11" transform="translate(-0.18 0.91) rotate(-0.15)"/><rect class="cls-4" x="354.01" y="66.76" width="0.49" height="11" transform="translate(-0.18 0.91) rotate(-0.15)"/><rect class="cls-4" x="377.82" y="66.63" width="0.49" height="11" transform="translate(-0.18 0.97) rotate(-0.15)"/><rect class="cls-4" x="379.82" y="66.8" width="0.49" height="10.5" transform="translate(-0.19 0.98) rotate(-0.15)"/><rect class="cls-4" x="381.82" y="67.57" width="0.49" height="9.05" transform="translate(-0.18 0.98) rotate(-0.15)"/><rect class="cls-4" x="383.82" y="68.76" width="0.49" height="6.81" transform="translate(-0.18 0.98) rotate(-0.15)"/><rect class="cls-4" x="385.72" y="70.13" width="0.49" height="3.98" transform="translate(-0.18 0.99) rotate(-0.15)"/><rect class="cls-4" x="389.91" y="69.39" width="0.49" height="5.47" transform="translate(-0.18 1) rotate(-0.15)"/><rect class="cls-4" x="391.91" y="67.98" width="0.49" height="8.36" transform="translate(-0.18 1) rotate(-0.15)"/><rect class="cls-4" x="393.92" y="66.94" width="0.49" height="10.51" transform="translate(-0.18 1.01) rotate(-0.15)"/><rect class="cls-4" x="395.92" y="66.65" width="0.49" height="11" transform="translate(-0.18 1.01) rotate(-0.15)"/><path class="cls-5" d="M397.53,65.65h-.25a10.6,10.6,0,0,0-3.43.66A14.13,14.13,0,0,0,387,71.8a11.76,11.76,0,0,1-4.28,3.73,14.4,14.4,0,0,1-5.54,1.56c-.38,0-.77,0-1.15,0a13.49,13.49,0,0,1-9.6-3.74,11,11,0,0,1-1.29-1.53,14.66,14.66,0,0,0-5.73-5,10.77,10.77,0,0,0-4.15-1.08h-.67l-.57,0v1.32h1.15a9.17,9.17,0,0,1,3.43.9,13.18,13.18,0,0,1,5.12,4.53,12.62,12.62,0,0,0,1.46,1.73,14.22,14.22,0,0,0,4.89,3.14A16.39,16.39,0,0,0,376,78.51c.43,0,.86,0,1.29-.05a16.12,16.12,0,0,0,6.26-1.77,13.24,13.24,0,0,0,4.83-4.2,12.7,12.7,0,0,1,6.06-4.92A8.83,8.83,0,0,1,397.3,67h.11l.77.07c0-.23,0-.46,0-.69v-.72Z"/><path class="cls-4" d="M397.31,78.12a10.09,10.09,0,0,1-3.21-.6,13.64,13.64,0,0,1-6.62-5.27,13.08,13.08,0,0,0-7.27-5.08,14.37,14.37,0,0,0-4.15-.58h0a14.44,14.44,0,0,0-4.15.6,13.09,13.09,0,0,0-7.24,5.12c-3.41,5-7.66,5.77-9.32,5.9a5.26,5.26,0,0,1-.69,0l0-.41s.22,0,.6,0c1.59-.12,5.65-.91,8.94-5.7a13.66,13.66,0,0,1,7.54-5.31,15.67,15.67,0,0,1,8.59,0A13.64,13.64,0,0,1,387.9,72a13.22,13.22,0,0,0,6.39,5.1,9,9,0,0,0,3.19.56l0,.41Z"/><path class="cls-6" d="M398.11,77.7l0-.45-.71,0h-.11a8.82,8.82,0,0,1-2.81-.54,12.59,12.59,0,0,1-6.11-4.89,14.19,14.19,0,0,0-7.87-5.48,15.85,15.85,0,0,0-4.24-.62h-.49a16.11,16.11,0,0,0-4.24.64,14.17,14.17,0,0,0-7.84,5.52c-3.16,4.59-7,5.35-8.5,5.46h-.51l-.57,0c0,.46,0,.92,0,1.37l.44,0h.24l.54,0c1.75-.13,6.22-1,9.76-6.13a12.59,12.59,0,0,1,6.94-4.91,14.11,14.11,0,0,1,3.76-.57h.43a14.23,14.23,0,0,1,3.76.55,12.58,12.58,0,0,1,7,4.87A14.23,14.23,0,0,0,393.88,78a10.66,10.66,0,0,0,3.44.64h.24l.57,0C398.12,78.27,398.12,78,398.11,77.7Z"/><path class="cls-7" d="M398.11,77.7l0-.45-.71,0h-.11a8.82,8.82,0,0,1-2.81-.54,12.59,12.59,0,0,1-6.11-4.89,14.19,14.19,0,0,0-7.87-5.48,15.85,15.85,0,0,0-4.24-.62h-.49a16.11,16.11,0,0,0-4.24.64,14.17,14.17,0,0,0-7.84,5.52c-3.16,4.59-7,5.35-8.5,5.46h-.51l-.57,0c0,.46,0,.92,0,1.37l.44,0h.24l.54,0c1.75-.13,6.22-1,9.76-6.13a12.59,12.59,0,0,1,6.94-4.91,14.11,14.11,0,0,1,3.76-.57h.43a14.23,14.23,0,0,1,3.76.55,12.58,12.58,0,0,1,7,4.87A14.23,14.23,0,0,0,393.88,78a10.66,10.66,0,0,0,3.44.64h.24l.57,0C398.12,78.27,398.12,78,398.11,77.7Z"/><path class="cls-4" d="M397.37,66.11a9.87,9.87,0,0,0-3.21.61,13.61,13.61,0,0,0-6.59,5.3,13.16,13.16,0,0,1-7.25,5.12,14.2,14.2,0,0,1-4.15.59h-.1c0,.13,0,.27,0,.41h.08a15,15,0,0,0,4.3-.62,13.6,13.6,0,0,0,7.53-5.3,13.17,13.17,0,0,1,6.36-5.13,9.07,9.07,0,0,1,3.18-.58l0-.41A1.11,1.11,0,0,0,397.37,66.11Z"/><path class="cls-5" d="M375.7,78c0-.12,0-.24,0-.36v-.47h.87a14.16,14.16,0,0,0,3.7-.57,12.37,12.37,0,0,0,6.83-4.84,13.92,13.92,0,0,1,6.76-5.44,10.42,10.42,0,0,1,3.37-.65h.24l.56,0L397.89,67l-.55,0h-.11a8.36,8.36,0,0,0-2.77.54,12.41,12.41,0,0,0-6,4.86,14,14,0,0,1-7.72,5.46,15.46,15.46,0,0,1-4.17.63h-.88Z"/><rect class="cls-4" x="420.06" y="66.52" width="0.49" height="11" transform="translate(-0.18 1.08) rotate(-0.15)"/><rect class="cls-4" x="418.06" y="66.52" width="0.49" height="11" transform="translate(-0.18 1.07) rotate(-0.15)"/><rect class="cls-4" x="416.06" y="66.71" width="0.49" height="10.5" transform="translate(-0.18 1.06) rotate(-0.15)"/><rect class="cls-4" x="414.06" y="67.48" width="0.49" height="9.05" transform="translate(-0.18 1.06) rotate(-0.15)"/><rect class="cls-4" x="412.05" y="68.69" width="0.49" height="6.81" transform="translate(-0.18 1.05) rotate(-0.15)"/><rect class="cls-4" x="410.05" y="70.17" width="0.49" height="3.79" transform="translate(-0.18 1.05) rotate(-0.15)"/><rect class="cls-4" x="406.05" y="69.35" width="0.49" height="5.47" transform="translate(-0.18 1.04) rotate(-0.15)"/><rect class="cls-4" x="404.05" y="67.95" width="0.49" height="8.36" transform="translate(-0.18 1.03) rotate(-0.15)"/><rect class="cls-4" x="402.04" y="66.92" width="0.49" height="10.51" transform="translate(-0.18 1.03) rotate(-0.15)"/><rect class="cls-4" x="400.04" y="66.64" width="0.49" height="11" transform="translate(-0.18 1.02) rotate(-0.15)"/><rect class="cls-4" x="398.26" y="66.64" width="0.49" height="11" transform="translate(-0.18 1.02) rotate(-0.15)"/><rect class="cls-4" x="422.07" y="66.51" width="0.49" height="11" transform="translate(-0.18 1.08) rotate(-0.15)"/><rect class="cls-4" x="424.07" y="66.69" width="0.49" height="10.5" transform="translate(-0.18 1.08) rotate(-0.15)"/><rect class="cls-4" x="426.07" y="67.45" width="0.49" height="9.05" transform="translate(-0.18 1.09) rotate(-0.15)"/><rect class="cls-4" x="428.07" y="68.65" width="0.49" height="6.81" transform="translate(-0.18 1.1) rotate(-0.15)"/><rect class="cls-4" x="429.97" y="70.02" width="0.49" height="3.98" transform="translate(-0.18 1.11) rotate(-0.15)"/><rect class="cls-4" x="434.16" y="69.28" width="0.49" height="5.47" transform="translate(-0.18 1.11) rotate(-0.15)"/><rect class="cls-4" x="436.16" y="67.87" width="0.49" height="8.36" transform="translate(-0.18 1.12) rotate(-0.15)"/><rect class="cls-4" x="438.17" y="66.83" width="0.49" height="10.51" transform="translate(-0.18 1.12) rotate(-0.15)"/><rect class="cls-4" x="440.17" y="66.53" width="0.49" height="11" transform="translate(-0.18 1.12) rotate(-0.15)"/><path class="cls-5" d="M441.78,65.54h-.25a10.6,10.6,0,0,0-3.43.66,14.07,14.07,0,0,0-6.86,5.5A11.76,11.76,0,0,1,427,75.42,14.4,14.4,0,0,1,421.42,77c-.38,0-.77,0-1.15,0a13.49,13.49,0,0,1-9.6-3.74,11.08,11.08,0,0,1-1.29-1.54,14.64,14.64,0,0,0-5.73-5,10.77,10.77,0,0,0-4.15-1.08h-.67l-.57,0V67h1.15a9.17,9.17,0,0,1,3.43.9A13.1,13.1,0,0,1,408,72.44a13.24,13.24,0,0,0,1.46,1.73,14.36,14.36,0,0,0,4.89,3.14,16.38,16.38,0,0,0,5.95,1.08c.43,0,.86,0,1.29,0a16.28,16.28,0,0,0,6.26-1.76,13.24,13.24,0,0,0,4.83-4.2,12.58,12.58,0,0,1,6.06-4.92,9,9,0,0,1,2.84-.56h.11l.77.08c0-.23,0-.46,0-.69v-.73Z"/><path class="cls-4" d="M441.56,78a9.53,9.53,0,0,1-3.21-.6,13.61,13.61,0,0,1-6.62-5.26,13.16,13.16,0,0,0-7.27-5.09,14.55,14.55,0,0,0-4.15-.57h0a14.44,14.44,0,0,0-4.15.6,13.12,13.12,0,0,0-7.24,5.11c-3.41,5-7.66,5.78-9.32,5.9-.43,0-.68,0-.69,0l0-.41a5.37,5.37,0,0,0,.6,0c1.59-.12,5.65-.91,8.94-5.69A13.61,13.61,0,0,1,416,66.68a15.67,15.67,0,0,1,8.59,0,13.54,13.54,0,0,1,7.56,5.27A13.13,13.13,0,0,0,438.54,77a8.91,8.91,0,0,0,3.19.57l0,.41Z"/><path class="cls-6" d="M442.36,77.59l0-.45-.71,0h-.11a8.69,8.69,0,0,1-2.81-.53,12.59,12.59,0,0,1-6.11-4.89,14.16,14.16,0,0,0-7.87-5.49,16.29,16.29,0,0,0-4.24-.62h-.25a1.85,1.85,0,0,0-.24,0,15.68,15.68,0,0,0-4.24.64A14.12,14.12,0,0,0,408,71.75c-3.16,4.59-7,5.34-8.5,5.45a3.36,3.36,0,0,1-.4,0H399l-.57,0c0,.46,0,.91,0,1.37l.44,0h.24a5.15,5.15,0,0,0,.54,0c1.75-.13,6.22-1,9.76-6.13a12.59,12.59,0,0,1,6.94-4.91,14.11,14.11,0,0,1,3.76-.57h.43a14.23,14.23,0,0,1,3.76.55,12.58,12.58,0,0,1,7,4.87,14.23,14.23,0,0,0,6.89,5.47,10.66,10.66,0,0,0,3.44.64h.24l.57,0C442.37,78.16,442.37,77.87,442.36,77.59Z"/><path class="cls-7" d="M442.36,77.59l0-.45-.71,0h-.11a8.69,8.69,0,0,1-2.81-.53,12.59,12.59,0,0,1-6.11-4.89,14.16,14.16,0,0,0-7.87-5.49,16.29,16.29,0,0,0-4.24-.62h-.25a1.85,1.85,0,0,0-.24,0,15.68,15.68,0,0,0-4.24.64A14.12,14.12,0,0,0,408,71.75c-3.16,4.59-7,5.34-8.5,5.45a3.36,3.36,0,0,1-.4,0H399l-.57,0c0,.46,0,.91,0,1.37l.44,0h.24a5.15,5.15,0,0,0,.54,0c1.75-.13,6.22-1,9.76-6.13a12.59,12.59,0,0,1,6.94-4.91,14.11,14.11,0,0,1,3.76-.57h.43a14.23,14.23,0,0,1,3.76.55,12.58,12.58,0,0,1,7,4.87,14.23,14.23,0,0,0,6.89,5.47,10.66,10.66,0,0,0,3.44.64h.24l.57,0C442.37,78.16,442.37,77.87,442.36,77.59Z"/><path class="cls-4" d="M441.62,66a10,10,0,0,0-3.21.62,13.61,13.61,0,0,0-6.59,5.3A13.16,13.16,0,0,1,424.57,77a14.62,14.62,0,0,1-4.15.59h-.1c0,.14,0,.28,0,.41h.08a14.43,14.43,0,0,0,4.3-.61,13.58,13.58,0,0,0,7.53-5.31A13.14,13.14,0,0,1,438.6,67a8.79,8.79,0,0,1,3.18-.58l0-.41Z"/><path class="cls-5" d="M420,77.86c0-.12,0-.24,0-.35V77h.87a14,14,0,0,0,3.7-.56,12.34,12.34,0,0,0,6.83-4.85,13.89,13.89,0,0,1,6.76-5.43,10.42,10.42,0,0,1,3.37-.65h.24l.56,0-.12,1.35-.55,0h-.11a8.36,8.36,0,0,0-2.77.54,12.35,12.35,0,0,0-6,4.86A14,14,0,0,1,425,77.75a15.9,15.9,0,0,1-4.17.63H420Z"/></g></g></svg>